# Low Poly Test Player - Unity ready
mtllib LowPolyPlayer.mtl

v -0.49000 0.05000 -0.21000
v -0.07000 0.05000 -0.21000
v -0.07000 1.05000 -0.21000
v -0.49000 1.05000 -0.21000
v -0.49000 0.05000 0.21000
v -0.07000 0.05000 0.21000
v -0.07000 1.05000 0.21000
v -0.49000 1.05000 0.21000
v 0.07000 0.05000 -0.21000
v 0.49000 0.05000 -0.21000
v 0.49000 1.05000 -0.21000
v 0.07000 1.05000 -0.21000
v 0.07000 0.05000 0.21000
v 0.49000 0.05000 0.21000
v 0.49000 1.05000 0.21000
v 0.07000 1.05000 0.21000
v -0.53000 -0.07500 -0.25000
v -0.03000 -0.07500 -0.25000
v -0.03000 0.17500 -0.25000
v -0.53000 0.17500 -0.25000
v -0.53000 -0.07500 0.45000
v -0.03000 -0.07500 0.45000
v -0.03000 0.17500 0.45000
v -0.53000 0.17500 0.45000
v 0.03000 -0.07500 -0.25000
v 0.53000 -0.07500 -0.25000
v 0.53000 0.17500 -0.25000
v 0.03000 0.17500 -0.25000
v 0.03000 -0.07500 0.45000
v 0.53000 -0.07500 0.45000
v 0.53000 0.17500 0.45000
v 0.03000 0.17500 0.45000
v -0.47500 0.85000 -0.27500
v 0.47500 0.85000 -0.27500
v 0.47500 1.85000 -0.27500
v -0.47500 1.85000 -0.27500
v -0.47500 0.85000 0.27500
v 0.47500 0.85000 0.27500
v 0.47500 1.85000 0.27500
v -0.47500 1.85000 0.27500
v 0.18000 1.81000 0.00000
v 0.12728 1.81000 0.12728
v 0.00000 1.81000 0.18000
v -0.12728 1.81000 0.12728
v -0.18000 1.81000 0.00000
v -0.12728 1.81000 -0.12728
v -0.00000 1.81000 -0.18000
v 0.12728 1.81000 -0.12728
v 0.18000 2.03000 0.00000
v 0.12728 2.03000 0.12728
v 0.00000 2.03000 0.18000
v -0.12728 2.03000 0.12728
v -0.18000 2.03000 0.00000
v -0.12728 2.03000 -0.12728
v -0.00000 2.03000 -0.18000
v 0.12728 2.03000 -0.12728
v 0.00000 1.81000 0.00000
v 0.00000 2.03000 0.00000
v 0.00000 2.70000 0.00000
v 0.18223 2.65841 0.00000
v 0.12886 2.65841 0.12886
v 0.00000 2.65841 0.18223
v -0.12886 2.65841 0.12886
v -0.18223 2.65841 0.00000
v -0.12886 2.65841 -0.12886
v -0.00000 2.65841 -0.18223
v 0.12886 2.65841 -0.12886
v 0.32837 2.54187 0.00000
v 0.23219 2.54187 0.23219
v 0.00000 2.54187 0.32837
v -0.23219 2.54187 0.23219
v -0.32837 2.54187 0.00000
v -0.23219 2.54187 -0.23219
v -0.00000 2.54187 -0.32837
v 0.23219 2.54187 -0.23219
v 0.40947 2.37346 0.00000
v 0.28954 2.37346 0.28954
v 0.00000 2.37346 0.40947
v -0.28954 2.37346 0.28954
v -0.40947 2.37346 0.00000
v -0.28954 2.37346 -0.28954
v -0.00000 2.37346 -0.40947
v 0.28954 2.37346 -0.28954
v 0.40947 2.18654 0.00000
v 0.28954 2.18654 0.28954
v 0.00000 2.18654 0.40947
v -0.28954 2.18654 0.28954
v -0.40947 2.18654 0.00000
v -0.28954 2.18654 -0.28954
v -0.00000 2.18654 -0.40947
v 0.28954 2.18654 -0.28954
v 0.32837 2.01813 0.00000
v 0.23219 2.01813 0.23219
v 0.00000 2.01813 0.32837
v -0.23219 2.01813 0.23219
v -0.32837 2.01813 0.00000
v -0.23219 2.01813 -0.23219
v -0.00000 2.01813 -0.32837
v 0.23219 2.01813 -0.23219
v 0.18223 1.90159 0.00000
v 0.12886 1.90159 0.12886
v 0.00000 1.90159 0.18223
v -0.12886 1.90159 0.12886
v -0.18223 1.90159 0.00000
v -0.12886 1.90159 -0.12886
v -0.00000 1.90159 -0.18223
v 0.12886 1.90159 -0.12886
v 0.00000 1.86000 0.00000
v 0.00000 2.90000 -0.01000
v 0.25275 2.81788 -0.01000
v 0.17872 2.81788 0.16872
v 0.00000 2.81788 0.24275
v -0.17872 2.81788 0.16872
v -0.25275 2.81788 -0.01000
v -0.17872 2.81788 -0.18872
v -0.00000 2.81788 -0.26275
v 0.17872 2.81788 -0.18872
v 0.40895 2.60288 -0.01000
v 0.28917 2.60288 0.27917
v 0.00000 2.60288 0.39895
v -0.28917 2.60288 0.27917
v -0.40895 2.60288 -0.01000
v -0.28917 2.60288 -0.29917
v -0.00000 2.60288 -0.41895
v 0.28917 2.60288 -0.29917
v 0.40895 2.33712 -0.01000
v 0.28917 2.33712 0.27917
v 0.00000 2.33712 0.39895
v -0.28917 2.33712 0.27917
v -0.40895 2.33712 -0.01000
v -0.28917 2.33712 -0.29917
v -0.00000 2.33712 -0.41895
v 0.28917 2.33712 -0.29917
v 0.25275 2.12212 -0.01000
v 0.17872 2.12212 0.16872
v 0.00000 2.12212 0.24275
v -0.17872 2.12212 0.16872
v -0.25275 2.12212 -0.01000
v -0.17872 2.12212 -0.18872
v -0.00000 2.12212 -0.26275
v 0.17872 2.12212 -0.18872
v 0.00000 2.04000 -0.01000
v -0.27500 2.25000 0.33000
v 0.27500 2.25000 0.33000
v 0.27500 2.47000 0.33000
v -0.27500 2.47000 0.33000
v -0.27500 2.25000 0.45000
v 0.27500 2.25000 0.45000
v 0.27500 2.47000 0.45000
v -0.27500 2.47000 0.45000
v -0.77000 0.94000 -0.15000
v -0.49000 0.94000 -0.15000
v -0.49000 1.76000 -0.15000
v -0.77000 1.76000 -0.15000
v -0.77000 0.94000 0.15000
v -0.49000 0.94000 0.15000
v -0.49000 1.76000 0.15000
v -0.77000 1.76000 0.15000
v 0.49000 0.94000 -0.15000
v 0.77000 0.94000 -0.15000
v 0.77000 1.76000 -0.15000
v 0.49000 1.76000 -0.15000
v 0.49000 0.94000 0.15000
v 0.77000 0.94000 0.15000
v 0.77000 1.76000 0.15000
v 0.49000 1.76000 0.15000
v -0.63000 1.05000 0.00000
v -0.52420 1.01562 0.00000
v -0.56403 1.01562 0.08272
v -0.65354 1.01562 0.10315
v -0.72532 1.01562 0.04591
v -0.72532 1.01562 -0.04591
v -0.65354 1.01562 -0.10315
v -0.56403 1.01562 -0.08272
v -0.45881 0.92562 0.00000
v -0.52326 0.92562 0.13384
v -0.66809 0.92562 0.16690
v -0.78424 0.92562 0.07428
v -0.78424 0.92562 -0.07428
v -0.66809 0.92562 -0.16690
v -0.52326 0.92562 -0.13384
v -0.45881 0.81438 0.00000
v -0.52326 0.81438 0.13384
v -0.66809 0.81438 0.16690
v -0.78424 0.81438 0.07428
v -0.78424 0.81438 -0.07428
v -0.66809 0.81438 -0.16690
v -0.52326 0.81438 -0.13384
v -0.52420 0.72438 0.00000
v -0.56403 0.72438 0.08272
v -0.65354 0.72438 0.10315
v -0.72532 0.72438 0.04591
v -0.72532 0.72438 -0.04591
v -0.65354 0.72438 -0.10315
v -0.56403 0.72438 -0.08272
v -0.63000 0.69000 0.00000
v 0.63000 1.05000 0.00000
v 0.73580 1.01562 0.00000
v 0.69597 1.01562 0.08272
v 0.60646 1.01562 0.10315
v 0.53468 1.01562 0.04591
v 0.53468 1.01562 -0.04591
v 0.60646 1.01562 -0.10315
v 0.69597 1.01562 -0.08272
v 0.80119 0.92562 0.00000
v 0.73674 0.92562 0.13384
v 0.59191 0.92562 0.16690
v 0.47576 0.92562 0.07428
v 0.47576 0.92562 -0.07428
v 0.59191 0.92562 -0.16690
v 0.73674 0.92562 -0.13384
v 0.80119 0.81438 0.00000
v 0.73674 0.81438 0.13384
v 0.59191 0.81438 0.16690
v 0.47576 0.81438 0.07428
v 0.47576 0.81438 -0.07428
v 0.59191 0.81438 -0.16690
v 0.73674 0.81438 -0.13384
v 0.73580 0.72438 0.00000
v 0.69597 0.72438 0.08272
v 0.60646 0.72438 0.10315
v 0.53468 0.72438 0.04591
v 0.53468 0.72438 -0.04591
v 0.60646 0.72438 -0.10315
v 0.69597 0.72438 -0.08272
v 0.63000 0.69000 0.00000
v -0.19500 2.26500 0.37250
v -0.10500 2.26500 0.37250
v -0.10500 2.35500 0.37250
v -0.19500 2.35500 0.37250
v -0.19500 2.26500 0.40750
v -0.10500 2.26500 0.40750
v -0.10500 2.35500 0.40750
v -0.19500 2.35500 0.40750
v 0.10500 2.26500 0.37250
v 0.19500 2.26500 0.37250
v 0.19500 2.35500 0.37250
v 0.10500 2.35500 0.37250
v 0.10500 2.26500 0.40750
v 0.19500 2.26500 0.40750
v 0.19500 2.35500 0.40750
v 0.10500 2.35500 0.40750
v -0.11000 2.12750 0.38750
v 0.11000 2.12750 0.38750
v 0.11000 2.17250 0.38750
v -0.11000 2.17250 0.38750
v -0.11000 2.12750 0.42250
v 0.11000 2.12750 0.42250
v 0.11000 2.17250 0.42250
v -0.11000 2.17250 0.42250
usemtl pants
f 1 2 3 4
f 5 8 7 6
f 1 5 6 2
f 4 3 7 8
f 1 4 8 5
f 2 6 7 3
f 9 10 11 12
f 13 16 15 14
f 9 13 14 10
f 12 11 15 16
f 9 12 16 13
f 10 14 15 11
usemtl shoes
f 17 18 19 20
f 21 24 23 22
f 17 21 22 18
f 20 19 23 24
f 17 20 24 21
f 18 22 23 19
f 25 26 27 28
f 29 32 31 30
f 25 29 30 26
f 28 27 31 32
f 25 28 32 29
f 26 30 31 27
usemtl shirt
f 33 34 35 36
f 37 40 39 38
f 33 37 38 34
f 36 35 39 40
f 33 36 40 37
f 34 38 39 35
usemtl skin
f 41 42 50 49
f 57 42 41
f 58 49 50
f 42 43 51 50
f 57 43 42
f 58 50 51
f 43 44 52 51
f 57 44 43
f 58 51 52
f 44 45 53 52
f 57 45 44
f 58 52 53
f 45 46 54 53
f 57 46 45
f 58 53 54
f 46 47 55 54
f 57 47 46
f 58 54 55
f 47 48 56 55
f 57 48 47
f 58 55 56
f 48 41 49 56
f 57 41 48
f 58 56 49
f 59 60 61
f 59 61 62
f 59 62 63
f 59 63 64
f 59 64 65
f 59 65 66
f 59 66 67
f 59 67 60
f 60 68 69 61
f 61 69 70 62
f 62 70 71 63
f 63 71 72 64
f 64 72 73 65
f 65 73 74 66
f 66 74 75 67
f 67 75 68 60
f 68 76 77 69
f 69 77 78 70
f 70 78 79 71
f 71 79 80 72
f 72 80 81 73
f 73 81 82 74
f 74 82 83 75
f 75 83 76 68
f 76 84 85 77
f 77 85 86 78
f 78 86 87 79
f 79 87 88 80
f 80 88 89 81
f 81 89 90 82
f 82 90 91 83
f 83 91 84 76
f 84 92 93 85
f 85 93 94 86
f 86 94 95 87
f 87 95 96 88
f 88 96 97 89
f 89 97 98 90
f 90 98 99 91
f 91 99 92 84
f 92 100 101 93
f 93 101 102 94
f 94 102 103 95
f 95 103 104 96
f 96 104 105 97
f 97 105 106 98
f 98 106 107 99
f 99 107 100 92
f 108 101 100
f 108 102 101
f 108 103 102
f 108 104 103
f 108 105 104
f 108 106 105
f 108 107 106
f 108 100 107
usemtl hair
f 109 110 111
f 109 111 112
f 109 112 113
f 109 113 114
f 109 114 115
f 109 115 116
f 109 116 117
f 109 117 110
f 110 118 119 111
f 111 119 120 112
f 112 120 121 113
f 113 121 122 114
f 114 122 123 115
f 115 123 124 116
f 116 124 125 117
f 117 125 118 110
f 118 126 127 119
f 119 127 128 120
f 120 128 129 121
f 121 129 130 122
f 122 130 131 123
f 123 131 132 124
f 124 132 133 125
f 125 133 126 118
f 126 134 135 127
f 127 135 136 128
f 128 136 137 129
f 129 137 138 130
f 130 138 139 131
f 131 139 140 132
f 132 140 141 133
f 133 141 134 126
f 142 135 134
f 142 136 135
f 142 137 136
f 142 138 137
f 142 139 138
f 142 140 139
f 142 141 140
f 142 134 141
f 143 144 145 146
f 147 150 149 148
f 143 147 148 144
f 146 145 149 150
f 143 146 150 147
f 144 148 149 145
usemtl shirt
f 151 152 153 154
f 155 158 157 156
f 151 155 156 152
f 154 153 157 158
f 151 154 158 155
f 152 156 157 153
f 159 160 161 162
f 163 166 165 164
f 159 163 164 160
f 162 161 165 166
f 159 162 166 163
f 160 164 165 161
usemtl skin
f 167 168 169
f 167 169 170
f 167 170 171
f 167 171 172
f 167 172 173
f 167 173 174
f 167 174 168
f 168 175 176 169
f 169 176 177 170
f 170 177 178 171
f 171 178 179 172
f 172 179 180 173
f 173 180 181 174
f 174 181 175 168
f 175 182 183 176
f 176 183 184 177
f 177 184 185 178
f 178 185 186 179
f 179 186 187 180
f 180 187 188 181
f 181 188 182 175
f 182 189 190 183
f 183 190 191 184
f 184 191 192 185
f 185 192 193 186
f 186 193 194 187
f 187 194 195 188
f 188 195 189 182
f 196 190 189
f 196 191 190
f 196 192 191
f 196 193 192
f 196 194 193
f 196 195 194
f 196 189 195
f 197 198 199
f 197 199 200
f 197 200 201
f 197 201 202
f 197 202 203
f 197 203 204
f 197 204 198
f 198 205 206 199
f 199 206 207 200
f 200 207 208 201
f 201 208 209 202
f 202 209 210 203
f 203 210 211 204
f 204 211 205 198
f 205 212 213 206
f 206 213 214 207
f 207 214 215 208
f 208 215 216 209
f 209 216 217 210
f 210 217 218 211
f 211 218 212 205
f 212 219 220 213
f 213 220 221 214
f 214 221 222 215
f 215 222 223 216
f 216 223 224 217
f 217 224 225 218
f 218 225 219 212
f 226 220 219
f 226 221 220
f 226 222 221
f 226 223 222
f 226 224 223
f 226 225 224
f 226 219 225
usemtl eyes
f 227 228 229 230
f 231 234 233 232
f 227 231 232 228
f 230 229 233 234
f 227 230 234 231
f 228 232 233 229
f 235 236 237 238
f 239 242 241 240
f 235 239 240 236
f 238 237 241 242
f 235 238 242 239
f 236 240 241 237
usemtl mouth
f 243 244 245 246
f 247 250 249 248
f 243 247 248 244
f 246 245 249 250
f 243 246 250 247
f 244 248 249 245