# Low Poly Test Thrower - Unity ready
mtllib LowPolyThrower.mtl

v -0.49000 0.02500 -0.23000
v -0.05000 0.02500 -0.23000
v -0.05000 1.07500 -0.23000
v -0.49000 1.07500 -0.23000
v -0.49000 0.02500 0.23000
v -0.05000 0.02500 0.23000
v -0.05000 1.07500 0.23000
v -0.49000 1.07500 0.23000
v 0.05000 0.02500 -0.23000
v 0.49000 0.02500 -0.23000
v 0.49000 1.07500 -0.23000
v 0.05000 1.07500 -0.23000
v 0.05000 0.02500 0.23000
v 0.49000 0.02500 0.23000
v 0.49000 1.07500 0.23000
v 0.05000 1.07500 0.23000
v -0.53000 -0.07500 -0.26000
v -0.01000 -0.07500 -0.26000
v -0.01000 0.17500 -0.26000
v -0.53000 0.17500 -0.26000
v -0.53000 -0.07500 0.46000
v -0.01000 -0.07500 0.46000
v -0.01000 0.17500 0.46000
v -0.53000 0.17500 0.46000
v 0.01000 -0.07500 -0.26000
v 0.53000 -0.07500 -0.26000
v 0.53000 0.17500 -0.26000
v 0.01000 0.17500 -0.26000
v 0.01000 -0.07500 0.46000
v 0.53000 -0.07500 0.46000
v 0.53000 0.17500 0.46000
v 0.01000 0.17500 0.46000
v -0.52500 0.85500 -0.30000
v 0.52500 0.85500 -0.30000
v 0.52500 1.90500 -0.30000
v -0.52500 1.90500 -0.30000
v -0.52500 0.85500 0.30000
v 0.52500 0.85500 0.30000
v 0.52500 1.90500 0.30000
v -0.52500 1.90500 0.30000
v -0.21000 1.06000 0.28500
v 0.21000 1.06000 0.28500
v 0.21000 1.78000 0.28500
v -0.21000 1.78000 0.28500
v -0.21000 1.06000 0.33500
v 0.21000 1.06000 0.33500
v 0.21000 1.78000 0.33500
v -0.21000 1.78000 0.33500
v 0.17000 1.83000 0.00000
v 0.12021 1.83000 0.12021
v 0.00000 1.83000 0.17000
v -0.12021 1.83000 0.12021
v -0.17000 1.83000 0.00000
v -0.12021 1.83000 -0.12021
v -0.00000 1.83000 -0.17000
v 0.12021 1.83000 -0.12021
v 0.17000 2.05000 0.00000
v 0.12021 2.05000 0.12021
v 0.00000 2.05000 0.17000
v -0.12021 2.05000 0.12021
v -0.17000 2.05000 0.00000
v -0.12021 2.05000 -0.12021
v -0.00000 2.05000 -0.17000
v 0.12021 2.05000 -0.12021
v 0.00000 1.83000 0.00000
v 0.00000 2.05000 0.00000
v 0.00000 2.71000 0.00000
v 0.18657 2.66742 0.00000
v 0.13192 2.66742 0.13192
v 0.00000 2.66742 0.18657
v -0.13192 2.66742 0.13192
v -0.18657 2.66742 0.00000
v -0.13192 2.66742 -0.13192
v -0.00000 2.66742 -0.18657
v 0.13192 2.66742 -0.13192
v 0.33619 2.54810 0.00000
v 0.23772 2.54810 0.23772
v 0.00000 2.54810 0.33619
v -0.23772 2.54810 0.23772
v -0.33619 2.54810 0.00000
v -0.23772 2.54810 -0.23772
v -0.00000 2.54810 -0.33619
v 0.23772 2.54810 -0.23772
v 0.41922 2.37568 0.00000
v 0.29643 2.37568 0.29643
v 0.00000 2.37568 0.41922
v -0.29643 2.37568 0.29643
v -0.41922 2.37568 0.00000
v -0.29643 2.37568 -0.29643
v -0.00000 2.37568 -0.41922
v 0.29643 2.37568 -0.29643
v 0.41922 2.18432 0.00000
v 0.29643 2.18432 0.29643
v 0.00000 2.18432 0.41922
v -0.29643 2.18432 0.29643
v -0.41922 2.18432 0.00000
v -0.29643 2.18432 -0.29643
v -0.00000 2.18432 -0.41922
v 0.29643 2.18432 -0.29643
v 0.33619 2.01190 0.00000
v 0.23772 2.01190 0.23772
v 0.00000 2.01190 0.33619
v -0.23772 2.01190 0.23772
v -0.33619 2.01190 0.00000
v -0.23772 2.01190 -0.23772
v -0.00000 2.01190 -0.33619
v 0.23772 2.01190 -0.23772
v 0.18657 1.89258 0.00000
v 0.13192 1.89258 0.13192
v 0.00000 1.89258 0.18657
v -0.13192 1.89258 0.13192
v -0.18657 1.89258 0.00000
v -0.13192 1.89258 -0.13192
v -0.00000 1.89258 -0.18657
v 0.13192 1.89258 -0.13192
v 0.00000 1.85000 0.00000
v 0.00000 2.92000 -0.01000
v 0.25863 2.83597 -0.01000
v 0.18288 2.83597 0.17288
v 0.00000 2.83597 0.24863
v -0.18288 2.83597 0.17288
v -0.25863 2.83597 -0.01000
v -0.18288 2.83597 -0.19288
v -0.00000 2.83597 -0.26863
v 0.18288 2.83597 -0.19288
v 0.41846 2.61597 -0.01000
v 0.29590 2.61597 0.28590
v 0.00000 2.61597 0.40846
v -0.29590 2.61597 0.28590
v -0.41846 2.61597 -0.01000
v -0.29590 2.61597 -0.30590
v -0.00000 2.61597 -0.42846
v 0.29590 2.61597 -0.30590
v 0.41846 2.34403 -0.01000
v 0.29590 2.34403 0.28590
v 0.00000 2.34403 0.40846
v -0.29590 2.34403 0.28590
v -0.41846 2.34403 -0.01000
v -0.29590 2.34403 -0.30590
v -0.00000 2.34403 -0.42846
v 0.29590 2.34403 -0.30590
v 0.25863 2.12403 -0.01000
v 0.18288 2.12403 0.17288
v 0.00000 2.12403 0.24863
v -0.18288 2.12403 0.17288
v -0.25863 2.12403 -0.01000
v -0.18288 2.12403 -0.19288
v -0.00000 2.12403 -0.26863
v 0.18288 2.12403 -0.19288
v 0.00000 2.04000 -0.01000
v -0.43000 2.04000 -0.20000
v -0.29000 2.04000 -0.20000
v -0.29000 2.52000 -0.20000
v -0.43000 2.52000 -0.20000
v -0.43000 2.04000 0.20000
v -0.29000 2.04000 0.20000
v -0.29000 2.52000 0.20000
v -0.43000 2.52000 0.20000
v 0.29000 2.04000 -0.20000
v 0.43000 2.04000 -0.20000
v 0.43000 2.52000 -0.20000
v 0.29000 2.52000 -0.20000
v 0.29000 2.04000 0.20000
v 0.43000 2.04000 0.20000
v 0.43000 2.52000 0.20000
v 0.29000 2.52000 0.20000
v -0.81000 0.97500 -0.16000
v -0.51000 0.97500 -0.16000
v -0.51000 1.82500 -0.16000
v -0.81000 1.82500 -0.16000
v -0.81000 0.97500 0.16000
v -0.51000 0.97500 0.16000
v -0.51000 1.82500 0.16000
v -0.81000 1.82500 0.16000
v 0.51000 0.97500 -0.16000
v 0.81000 0.97500 -0.16000
v 0.81000 1.82500 -0.16000
v 0.51000 1.82500 -0.16000
v 0.51000 0.97500 0.16000
v 0.81000 0.97500 0.16000
v 0.81000 1.82500 0.16000
v 0.51000 1.82500 0.16000
v -0.66000 1.08000 0.00000
v -0.55420 1.04562 0.00000
v -0.59403 1.04562 0.08272
v -0.68354 1.04562 0.10315
v -0.75532 1.04562 0.04591
v -0.75532 1.04562 -0.04591
v -0.68354 1.04562 -0.10315
v -0.59403 1.04562 -0.08272
v -0.48881 0.95562 0.00000
v -0.55326 0.95562 0.13384
v -0.69809 0.95562 0.16690
v -0.81424 0.95562 0.07428
v -0.81424 0.95562 -0.07428
v -0.69809 0.95562 -0.16690
v -0.55326 0.95562 -0.13384
v -0.48881 0.84438 0.00000
v -0.55326 0.84438 0.13384
v -0.69809 0.84438 0.16690
v -0.81424 0.84438 0.07428
v -0.81424 0.84438 -0.07428
v -0.69809 0.84438 -0.16690
v -0.55326 0.84438 -0.13384
v -0.55420 0.75438 0.00000
v -0.59403 0.75438 0.08272
v -0.68354 0.75438 0.10315
v -0.75532 0.75438 0.04591
v -0.75532 0.75438 -0.04591
v -0.68354 0.75438 -0.10315
v -0.59403 0.75438 -0.08272
v -0.66000 0.72000 0.00000
v 0.66000 1.08000 0.00000
v 0.76580 1.04562 0.00000
v 0.72597 1.04562 0.08272
v 0.63646 1.04562 0.10315
v 0.56468 1.04562 0.04591
v 0.56468 1.04562 -0.04591
v 0.63646 1.04562 -0.10315
v 0.72597 1.04562 -0.08272
v 0.83119 0.95562 0.00000
v 0.76674 0.95562 0.13384
v 0.62191 0.95562 0.16690
v 0.50576 0.95562 0.07428
v 0.50576 0.95562 -0.07428
v 0.62191 0.95562 -0.16690
v 0.76674 0.95562 -0.13384
v 0.83119 0.84438 0.00000
v 0.76674 0.84438 0.13384
v 0.62191 0.84438 0.16690
v 0.50576 0.84438 0.07428
v 0.50576 0.84438 -0.07428
v 0.62191 0.84438 -0.16690
v 0.76674 0.84438 -0.13384
v 0.76580 0.75438 0.00000
v 0.72597 0.75438 0.08272
v 0.63646 0.75438 0.10315
v 0.56468 0.75438 0.04591
v 0.56468 0.75438 -0.04591
v 0.63646 0.75438 -0.10315
v 0.72597 0.75438 -0.08272
v 0.66000 0.72000 0.00000
v -0.19500 2.26500 0.38250
v -0.10500 2.26500 0.38250
v -0.10500 2.35500 0.38250
v -0.19500 2.35500 0.38250
v -0.19500 2.26500 0.41750
v -0.10500 2.26500 0.41750
v -0.10500 2.35500 0.41750
v -0.19500 2.35500 0.41750
v 0.10500 2.26500 0.38250
v 0.19500 2.26500 0.38250
v 0.19500 2.35500 0.38250
v 0.10500 2.35500 0.38250
v 0.10500 2.26500 0.41750
v 0.19500 2.26500 0.41750
v 0.19500 2.35500 0.41750
v 0.10500 2.35500 0.41750
v -0.11000 2.12750 0.38750
v 0.11000 2.12750 0.38750
v 0.11000 2.17250 0.38750
v -0.11000 2.17250 0.38750
v -0.11000 2.12750 0.42250
v 0.11000 2.12750 0.42250
v 0.11000 2.17250 0.42250
v -0.11000 2.17250 0.42250
v 0.72000 1.41000 -0.10000
v 0.92000 1.41000 -0.10000
v 0.92000 1.63000 -0.10000
v 0.72000 1.63000 -0.10000
v 0.72000 1.41000 0.10000
v 0.92000 1.41000 0.10000
v 0.92000 1.63000 0.10000
v 0.72000 1.63000 0.10000
usemtl pants
f 1 2 3 4
f 5 8 7 6
f 1 5 6 2
f 4 3 7 8
f 1 4 8 5
f 2 6 7 3
f 9 10 11 12
f 13 16 15 14
f 9 13 14 10
f 12 11 15 16
f 9 12 16 13
f 10 14 15 11
usemtl boots
f 17 18 19 20
f 21 24 23 22
f 17 21 22 18
f 20 19 23 24
f 17 20 24 21
f 18 22 23 19
f 25 26 27 28
f 29 32 31 30
f 25 29 30 26
f 28 27 31 32
f 25 28 32 29
f 26 30 31 27
usemtl jacket
f 33 34 35 36
f 37 40 39 38
f 33 37 38 34
f 36 35 39 40
f 33 36 40 37
f 34 38 39 35
usemtl shirt
f 41 42 43 44
f 45 48 47 46
f 41 45 46 42
f 44 43 47 48
f 41 44 48 45
f 42 46 47 43
usemtl skin
f 49 50 58 57
f 65 50 49
f 66 57 58
f 50 51 59 58
f 65 51 50
f 66 58 59
f 51 52 60 59
f 65 52 51
f 66 59 60
f 52 53 61 60
f 65 53 52
f 66 60 61
f 53 54 62 61
f 65 54 53
f 66 61 62
f 54 55 63 62
f 65 55 54
f 66 62 63
f 55 56 64 63
f 65 56 55
f 66 63 64
f 56 49 57 64
f 65 49 56
f 66 64 57
f 67 68 69
f 67 69 70
f 67 70 71
f 67 71 72
f 67 72 73
f 67 73 74
f 67 74 75
f 67 75 68
f 68 76 77 69
f 69 77 78 70
f 70 78 79 71
f 71 79 80 72
f 72 80 81 73
f 73 81 82 74
f 74 82 83 75
f 75 83 76 68
f 76 84 85 77
f 77 85 86 78
f 78 86 87 79
f 79 87 88 80
f 80 88 89 81
f 81 89 90 82
f 82 90 91 83
f 83 91 84 76
f 84 92 93 85
f 85 93 94 86
f 86 94 95 87
f 87 95 96 88
f 88 96 97 89
f 89 97 98 90
f 90 98 99 91
f 91 99 92 84
f 92 100 101 93
f 93 101 102 94
f 94 102 103 95
f 95 103 104 96
f 96 104 105 97
f 97 105 106 98
f 98 106 107 99
f 99 107 100 92
f 100 108 109 101
f 101 109 110 102
f 102 110 111 103
f 103 111 112 104
f 104 112 113 105
f 105 113 114 106
f 106 114 115 107
f 107 115 108 100
f 116 109 108
f 116 110 109
f 116 111 110
f 116 112 111
f 116 113 112
f 116 114 113
f 116 115 114
f 116 108 115
usemtl hair
f 117 118 119
f 117 119 120
f 117 120 121
f 117 121 122
f 117 122 123
f 117 123 124
f 117 124 125
f 117 125 118
f 118 126 127 119
f 119 127 128 120
f 120 128 129 121
f 121 129 130 122
f 122 130 131 123
f 123 131 132 124
f 124 132 133 125
f 125 133 126 118
f 126 134 135 127
f 127 135 136 128
f 128 136 137 129
f 129 137 138 130
f 130 138 139 131
f 131 139 140 132
f 132 140 141 133
f 133 141 134 126
f 134 142 143 135
f 135 143 144 136
f 136 144 145 137
f 137 145 146 138
f 138 146 147 139
f 139 147 148 140
f 140 148 149 141
f 141 149 142 134
f 150 143 142
f 150 144 143
f 150 145 144
f 150 146 145
f 150 147 146
f 150 148 147
f 150 149 148
f 150 142 149
f 151 152 153 154
f 155 158 157 156
f 151 155 156 152
f 154 153 157 158
f 151 154 158 155
f 152 156 157 153
f 159 160 161 162
f 163 166 165 164
f 159 163 164 160
f 162 161 165 166
f 159 162 166 163
f 160 164 165 161
usemtl jacket
f 167 168 169 170
f 171 174 173 172
f 167 171 172 168
f 170 169 173 174
f 167 170 174 171
f 168 172 173 169
f 175 176 177 178
f 179 182 181 180
f 175 179 180 176
f 178 177 181 182
f 175 178 182 179
f 176 180 181 177
usemtl skin
f 183 184 185
f 183 185 186
f 183 186 187
f 183 187 188
f 183 188 189
f 183 189 190
f 183 190 184
f 184 191 192 185
f 185 192 193 186
f 186 193 194 187
f 187 194 195 188
f 188 195 196 189
f 189 196 197 190
f 190 197 191 184
f 191 198 199 192
f 192 199 200 193
f 193 200 201 194
f 194 201 202 195
f 195 202 203 196
f 196 203 204 197
f 197 204 198 191
f 198 205 206 199
f 199 206 207 200
f 200 207 208 201
f 201 208 209 202
f 202 209 210 203
f 203 210 211 204
f 204 211 205 198
f 212 206 205
f 212 207 206
f 212 208 207
f 212 209 208
f 212 210 209
f 212 211 210
f 212 205 211
f 213 214 215
f 213 215 216
f 213 216 217
f 213 217 218
f 213 218 219
f 213 219 220
f 213 220 214
f 214 221 222 215
f 215 222 223 216
f 216 223 224 217
f 217 224 225 218
f 218 225 226 219
f 219 226 227 220
f 220 227 221 214
f 221 228 229 222
f 222 229 230 223
f 223 230 231 224
f 224 231 232 225
f 225 232 233 226
f 226 233 234 227
f 227 234 228 221
f 228 235 236 229
f 229 236 237 230
f 230 237 238 231
f 231 238 239 232
f 232 239 240 233
f 233 240 241 234
f 234 241 235 228
f 242 236 235
f 242 237 236
f 242 238 237
f 242 239 238
f 242 240 239
f 242 241 240
f 242 235 241
usemtl eyes
f 243 244 245 246
f 247 250 249 248
f 243 247 248 244
f 246 245 249 250
f 243 246 250 247
f 244 248 249 245
f 251 252 253 254
f 255 258 257 256
f 251 255 256 252
f 254 253 257 258
f 251 254 258 255
f 252 256 257 253
usemtl mouth
f 259 260 261 262
f 263 266 265 264
f 259 263 264 260
f 262 261 265 266
f 259 262 266 263
f 260 264 265 261
usemtl skin
f 267 268 269 270
f 271 274 273 272
f 267 271 272 268
f 270 269 273 274
f 267 270 274 271
f 268 272 273 269