# Sci-Fi Turret 3D Model OBJ
# Components: Base, Swivel, Main Housing, Sensor, Dual Barrels

v 0.0000 0.0000 0.0000
v 0.0000 0.4000 0.0000
v 2.0000 0.0000 0.0000
v 1.8000 0.4000 0.0000
v 1.8478 0.0000 0.7654
v 1.6630 0.4000 0.6888
v 1.4142 0.0000 1.4142
v 1.2728 0.4000 1.2728
v 0.7654 0.0000 1.8478
v 0.6888 0.4000 1.6630
v 0.0000 0.0000 2.0000
v 0.0000 0.4000 1.8000
v -0.7654 0.0000 1.8478
v -0.6888 0.4000 1.6630
v -1.4142 0.0000 1.4142
v -1.2728 0.4000 1.2728
v -1.8478 0.0000 0.7654
v -1.6630 0.4000 0.6888
v -2.0000 0.0000 0.0000
v -1.8000 0.4000 0.0000
v -1.8478 0.0000 -0.7654
v -1.6630 0.4000 -0.6888
v -1.4142 0.0000 -1.4142
v -1.2728 0.4000 -1.2728
v -0.7654 0.0000 -1.8478
v -0.6888 0.4000 -1.6630
v -0.0000 0.0000 -2.0000
v -0.0000 0.4000 -1.8000
v 0.7654 0.0000 -1.8478
v 0.6888 0.4000 -1.6630
v 1.4142 0.0000 -1.4142
v 1.2728 0.4000 -1.2728
v 1.8478 0.0000 -0.7654
v 1.6630 0.4000 -0.6888
v 0.0000 0.4000 0.0000
v 0.0000 1.0000 0.0000
v 1.7000 0.4000 0.0000
v 1.5000 1.0000 0.0000
v 1.5706 0.4000 0.6506
v 1.3858 1.0000 0.5740
v 1.2021 0.4000 1.2021
v 1.0607 1.0000 1.0607
v 0.6506 0.4000 1.5706
v 0.5740 1.0000 1.3858
v 0.0000 0.4000 1.7000
v 0.0000 1.0000 1.5000
v -0.6506 0.4000 1.5706
v -0.5740 1.0000 1.3858
v -1.2021 0.4000 1.2021
v -1.0607 1.0000 1.0607
v -1.5706 0.4000 0.6506
v -1.3858 1.0000 0.5740
v -1.7000 0.4000 0.0000
v -1.5000 1.0000 0.0000
v -1.5706 0.4000 -0.6506
v -1.3858 1.0000 -0.5740
v -1.2021 0.4000 -1.2021
v -1.0607 1.0000 -1.0607
v -0.6506 0.4000 -1.5706
v -0.5740 1.0000 -1.3858
v -0.0000 0.4000 -1.7000
v -0.0000 1.0000 -1.5000
v 0.6506 0.4000 -1.5706
v 0.5740 1.0000 -1.3858
v 1.2021 0.4000 -1.2021
v 1.0607 1.0000 -1.0607
v 1.5706 0.4000 -0.6506
v 1.3858 1.0000 -0.5740
v -0.9000 1.0000 -1.1000
v 0.9000 1.0000 -1.1000
v 0.9000 2.0000 -1.1000
v -0.9000 2.0000 -1.1000
v -0.9000 1.0000 1.1000
v 0.9000 1.0000 1.1000
v 0.9000 2.0000 1.1000
v -0.9000 2.0000 1.1000
v -0.4000 2.0000 -0.2000
v 0.4000 2.0000 -0.2000
v 0.4000 2.3000 -0.2000
v -0.4000 2.3000 -0.2000
v -0.4000 2.0000 0.6000
v 0.4000 2.0000 0.6000
v 0.4000 2.3000 0.6000
v -0.4000 2.3000 0.6000
v -0.5000 1.5000 1.1000
v -0.5000 2.3000 1.1000
v -0.2500 1.5000 1.1000
v -0.3000 2.3000 1.1000
v -0.2835 1.5000 1.2250
v -0.3268 2.3000 1.2000
v -0.3750 1.5000 1.3165
v -0.4000 2.3000 1.2732
v -0.5000 1.5000 1.3500
v -0.5000 2.3000 1.3000
v -0.6250 1.5000 1.3165
v -0.6000 2.3000 1.2732
v -0.7165 1.5000 1.2250
v -0.6732 2.3000 1.2000
v -0.7500 1.5000 1.1000
v -0.7000 2.3000 1.1000
v -0.7165 1.5000 0.9750
v -0.6732 2.3000 1.0000
v -0.6250 1.5000 0.8835
v -0.6000 2.3000 0.9268
v -0.5000 1.5000 0.8500
v -0.5000 2.3000 0.9000
v -0.3750 1.5000 0.8835
v -0.4000 2.3000 0.9268
v -0.2835 1.5000 0.9750
v -0.3268 2.3000 1.0000
v -0.5500 1.5000 1.1000
v -0.5500 1.5000 3.3000
v -0.4000 1.5000 1.1000
v -0.4000 1.5000 3.3000
v -0.4201 1.5750 1.1000
v -0.4201 1.5750 3.3000
v -0.4750 1.6299 1.1000
v -0.4750 1.6299 3.3000
v -0.5500 1.6500 1.1000
v -0.5500 1.6500 3.3000
v -0.6250 1.6299 1.1000
v -0.6250 1.6299 3.3000
v -0.6799 1.5750 1.1000
v -0.6799 1.5750 3.3000
v -0.7000 1.5000 1.1000
v -0.7000 1.5000 3.3000
v -0.6799 1.4250 1.1000
v -0.6799 1.4250 3.3000
v -0.6250 1.3701 1.1000
v -0.6250 1.3701 3.3000
v -0.5500 1.3500 1.1000
v -0.5500 1.3500 3.3000
v -0.4750 1.3701 1.1000
v -0.4750 1.3701 3.3000
v -0.4201 1.4250 1.1000
v -0.4201 1.4250 3.3000
v -0.5500 1.5000 3.1000
v -0.5500 1.5000 3.4000
v -0.3500 1.5000 3.1000
v -0.3500 1.5000 3.4000
v -0.3768 1.6000 3.1000
v -0.3768 1.6000 3.4000
v -0.4500 1.6732 3.1000
v -0.4500 1.6732 3.4000
v -0.5500 1.7000 3.1000
v -0.5500 1.7000 3.4000
v -0.6500 1.6732 3.1000
v -0.6500 1.6732 3.4000
v -0.7232 1.6000 3.1000
v -0.7232 1.6000 3.4000
v -0.7500 1.5000 3.1000
v -0.7500 1.5000 3.4000
v -0.7232 1.4000 3.1000
v -0.7232 1.4000 3.4000
v -0.6500 1.3268 3.1000
v -0.6500 1.3268 3.4000
v -0.5500 1.3000 3.1000
v -0.5500 1.3000 3.4000
v -0.4500 1.3268 3.1000
v -0.4500 1.3268 3.4000
v -0.3768 1.4000 3.1000
v -0.3768 1.4000 3.4000
v 0.5500 1.5000 1.1000
v 0.5500 1.5000 3.3000
v 0.7000 1.5000 1.1000
v 0.7000 1.5000 3.3000
v 0.6799 1.5750 1.1000
v 0.6799 1.5750 3.3000
v 0.6250 1.6299 1.1000
v 0.6250 1.6299 3.3000
v 0.5500 1.6500 1.1000
v 0.5500 1.6500 3.3000
v 0.4750 1.6299 1.1000
v 0.4750 1.6299 3.3000
v 0.4201 1.5750 1.1000
v 0.4201 1.5750 3.3000
v 0.4000 1.5000 1.1000
v 0.4000 1.5000 3.3000
v 0.4201 1.4250 1.1000
v 0.4201 1.4250 3.3000
v 0.4750 1.3701 1.1000
v 0.4750 1.3701 3.3000
v 0.5500 1.3500 1.1000
v 0.5500 1.3500 3.3000
v 0.6250 1.3701 1.1000
v 0.6250 1.3701 3.3000
v 0.6799 1.4250 1.1000
v 0.6799 1.4250 3.3000
v 0.5500 1.5000 3.1000
v 0.5500 1.5000 3.4000
v 0.7500 1.5000 3.1000
v 0.7500 1.5000 3.4000
v 0.7232 1.6000 3.1000
v 0.7232 1.6000 3.4000
v 0.6500 1.6732 3.1000
v 0.6500 1.6732 3.4000
v 0.5500 1.7000 3.1000
v 0.5500 1.7000 3.4000
v 0.4500 1.6732 3.1000
v 0.4500 1.6732 3.4000
v 0.3768 1.6000 3.1000
v 0.3768 1.6000 3.4000
v 0.3500 1.5000 3.1000
v 0.3500 1.5000 3.4000
v 0.3768 1.4000 3.1000
v 0.3768 1.4000 3.4000
v 0.4500 1.3268 3.1000
v 0.4500 1.3268 3.4000
v 0.5500 1.3000 3.1000
v 0.5500 1.3000 3.4000
v 0.6500 1.3268 3.1000
v 0.6500 1.3268 3.4000
v 0.7232 1.4000 3.1000
v 0.7232 1.4000 3.4000

s off
f 1 5 3
f 2 4 6
f 3 5 6
f 3 6 4
f 1 7 5
f 2 6 8
f 5 7 8
f 5 8 6
f 1 9 7
f 2 8 10
f 7 9 10
f 7 10 8
f 1 11 9
f 2 10 12
f 9 11 12
f 9 12 10
f 1 13 11
f 2 12 14
f 11 13 14
f 11 14 12
f 1 15 13
f 2 14 16
f 13 15 16
f 13 16 14
f 1 17 15
f 2 16 18
f 15 17 18
f 15 18 16
f 1 19 17
f 2 18 20
f 17 19 20
f 17 20 18
f 1 21 19
f 2 20 22
f 19 21 22
f 19 22 20
f 1 23 21
f 2 22 24
f 21 23 24
f 21 24 22
f 1 25 23
f 2 24 26
f 23 25 26
f 23 26 24
f 1 27 25
f 2 26 28
f 25 27 28
f 25 28 26
f 1 29 27
f 2 28 30
f 27 29 30
f 27 30 28
f 1 31 29
f 2 30 32
f 29 31 32
f 29 32 30
f 1 33 31
f 2 32 34
f 31 33 34
f 31 34 32
f 1 3 33
f 2 34 4
f 33 3 4
f 33 4 34
f 35 39 37
f 36 38 40
f 37 39 40
f 37 40 38
f 35 41 39
f 36 40 42
f 39 41 42
f 39 42 40
f 35 43 41
f 36 42 44
f 41 43 44
f 41 44 42
f 35 45 43
f 36 44 46
f 43 45 46
f 43 46 44
f 35 47 45
f 36 46 48
f 45 47 48
f 45 48 46
f 35 49 47
f 36 48 50
f 47 49 50
f 47 50 48
f 35 51 49
f 36 50 52
f 49 51 52
f 49 52 50
f 35 53 51
f 36 52 54
f 51 53 54
f 51 54 52
f 35 55 53
f 36 54 56
f 53 55 56
f 53 56 54
f 35 57 55
f 36 56 58
f 55 57 58
f 55 58 56
f 35 59 57
f 36 58 60
f 57 59 60
f 57 60 58
f 35 61 59
f 36 60 62
f 59 61 62
f 59 62 60
f 35 63 61
f 36 62 64
f 61 63 64
f 61 64 62
f 35 65 63
f 36 64 66
f 63 65 66
f 63 66 64
f 35 67 65
f 36 66 68
f 65 67 68
f 65 68 66
f 35 37 67
f 36 68 38
f 67 37 38
f 67 38 68
f 73 74 75
f 73 75 76
f 70 69 72
f 70 72 71
f 72 71 75
f 72 75 76
f 69 70 74
f 69 74 73
f 70 71 75
f 70 75 74
f 69 73 76
f 69 76 72
f 81 82 83
f 81 83 84
f 78 77 80
f 78 80 79
f 80 79 83
f 80 83 84
f 77 78 82
f 77 82 81
f 78 79 83
f 78 83 82
f 77 81 84
f 77 84 80
f 85 89 87
f 86 88 90
f 87 89 90
f 87 90 88
f 85 91 89
f 86 90 92
f 89 91 92
f 89 92 90
f 85 93 91
f 86 92 94
f 91 93 94
f 91 94 92
f 85 95 93
f 86 94 96
f 93 95 96
f 93 96 94
f 85 97 95
f 86 96 98
f 95 97 98
f 95 98 96
f 85 99 97
f 86 98 100
f 97 99 100
f 97 100 98
f 85 101 99
f 86 100 102
f 99 101 102
f 99 102 100
f 85 103 101
f 86 102 104
f 101 103 104
f 101 104 102
f 85 105 103
f 86 104 106
f 103 105 106
f 103 106 104
f 85 107 105
f 86 106 108
f 105 107 108
f 105 108 106
f 85 109 107
f 86 108 110
f 107 109 110
f 107 110 108
f 85 87 109
f 86 110 88
f 109 87 88
f 109 88 110
f 111 115 113
f 112 114 116
f 113 116 115
f 113 114 116
f 111 117 115
f 112 116 118
f 115 118 117
f 115 116 118
f 111 119 117
f 112 118 120
f 117 120 119
f 117 118 120
f 111 121 119
f 112 120 122
f 119 122 121
f 119 120 122
f 111 123 121
f 112 122 124
f 121 124 123
f 121 122 124
f 111 125 123
f 112 124 126
f 123 126 125
f 123 124 126
f 111 127 125
f 112 126 128
f 125 128 127
f 125 126 128
f 111 129 127
f 112 128 130
f 127 130 129
f 127 128 130
f 111 131 129
f 112 130 132
f 129 132 131
f 129 130 132
f 111 133 131
f 112 132 134
f 131 134 133
f 131 132 134
f 111 135 133
f 112 134 136
f 133 136 135
f 133 134 136
f 111 113 135
f 112 136 114
f 135 114 113
f 135 136 114
f 137 141 139
f 138 140 142
f 139 142 141
f 139 140 142
f 137 143 141
f 138 142 144
f 141 144 143
f 141 142 144
f 137 145 143
f 138 144 146
f 143 146 145
f 143 144 146
f 137 147 145
f 138 146 148
f 145 148 147
f 145 146 148
f 137 149 147
f 138 148 150
f 147 150 149
f 147 148 150
f 137 151 149
f 138 150 152
f 149 152 151
f 149 150 152
f 137 153 151
f 138 152 154
f 151 154 153
f 151 152 154
f 137 155 153
f 138 154 156
f 153 156 155
f 153 154 156
f 137 157 155
f 138 156 158
f 155 158 157
f 155 156 158
f 137 159 157
f 138 158 160
f 157 160 159
f 157 158 160
f 137 161 159
f 138 160 162
f 159 162 161
f 159 160 162
f 137 139 161
f 138 162 140
f 161 140 139
f 161 162 140
f 163 167 165
f 164 166 168
f 165 168 167
f 165 166 168
f 163 169 167
f 164 168 170
f 167 170 169
f 167 168 170
f 163 171 169
f 164 170 172
f 169 172 171
f 169 170 172
f 163 173 171
f 164 172 174
f 171 174 173
f 171 172 174
f 163 175 173
f 164 174 176
f 173 176 175
f 173 174 176
f 163 177 175
f 164 176 178
f 175 178 177
f 175 176 178
f 163 179 177
f 164 178 180
f 177 180 179
f 177 178 180
f 163 181 179
f 164 180 182
f 179 182 181
f 179 180 182
f 163 183 181
f 164 182 184
f 181 184 183
f 181 182 184
f 163 185 183
f 164 184 186
f 183 186 185
f 183 184 186
f 163 187 185
f 164 186 188
f 185 188 187
f 185 186 188
f 163 165 187
f 164 188 166
f 187 166 165
f 187 188 166
f 189 193 191
f 190 192 194
f 191 194 193
f 191 192 194
f 189 195 193
f 190 194 196
f 193 196 195
f 193 194 196
f 189 197 195
f 190 196 198
f 195 198 197
f 195 196 198
f 189 199 197
f 190 198 200
f 197 200 199
f 197 198 200
f 189 201 199
f 190 200 202
f 199 202 201
f 199 200 202
f 189 203 201
f 190 202 204
f 201 204 203
f 201 202 204
f 189 205 203
f 190 204 206
f 203 206 205
f 203 204 206
f 189 207 205
f 190 206 208
f 205 208 207
f 205 206 208
f 189 209 207
f 190 208 210
f 207 210 209
f 207 208 210
f 189 211 209
f 190 210 212
f 209 212 211
f 209 210 212
f 189 213 211
f 190 212 214
f 211 214 213
f 211 212 214
f 189 191 213
f 190 214 192
f 213 192 191
f 213 214 192
